<svg width="104" height="104" viewBox="0 0 104 104" fill="none" xmlns="http://www.w3.org/2000/svg"><path d="M76.615 13.186c.503.592 1.973-.119 3.01-.136 2.287-.036 2.234 3.377.97 5.316-.402.623-1.01 1.101-.875 1.948-2.624.32-4.373-.777-5.34-3.216.394-.364-.179-1.36.17-2.25a3.372 3.372 0 0 1 2.065-1.662Z" fill="#FAC704"/><path d="M90.89 35.4c.573.521 1.111 1.82 1.557 2.456-.7 1.202-.437 2.29.35 3.351a15.822 15.822 0 0 1 2.817 7.983c1.465 16.415-15.308 29.268-31.297 24.306-.779-.245-1.207-.403-1.028-1.504 1.177-7.15 2.305-14.204 4.465-21.113.31-.987.464-3.04 1.457-3.706 2.996-2.023 6.525-3.07 9.792-4.58 4.225-1.96 7.562-5.435 11.887-7.194Zm-4.75 21.612c-.62.202-1.311.438-1.338 1.386-.026.877.285 1.496 1.181 1.575.967.092 1.518-.439 1.566-1.426.044-.9-.464-1.338-1.408-1.535ZM75.763 68.496c-.205-.71-.62-1.277-1.517-1.237-.897.04-1.312.64-1.238 1.496a1.196 1.196 0 0 0 .816 1.152c.16.053.329.071.496.054.892-.03 1.343-.509 1.443-1.465Zm-2.239-12.164c-.127-.592-.472-1.202-1.25-1.176a1.31 1.31 0 0 0-1.306.9c-.06.18-.08.372-.06.561 0 .798.556 1.176 1.352 1.14.796-.035 1.172-.548 1.264-1.425Zm8.891-2.575a1.23 1.23 0 0 0-.957-1.072 1.22 1.22 0 0 0-.508-.003 1.033 1.033 0 0 0-1.046.717 1.043 1.043 0 0 0-.043.45 1.15 1.15 0 0 0 .806 1.174c.164.05.337.063.506.037.814-.044 1.199-.522 1.242-1.312v.009Zm-7.058-3.51a1.277 1.277 0 0 0-1.273-1.074c-.932-.096-1.185.632-1.312 1.162-.197.847.62 1.088 1.242 1.194.787.105 1.207-.39 1.343-1.308v.027Zm-6.836 20.56c-.21-.579-.595-1.14-1.356-1.061-.617.066-1.312.224-1.29 1.162 0 .856.608.913 1.168.996.739.088 1.263-.22 1.478-1.123v.026Zm20.555-22.06a1.291 1.291 0 0 0-1.19-1.153c-.642-.044-.962.364-.93.991.03.627.288 1.14 1.088 1.101a.93.93 0 0 0 1.037-.965l-.005.027Zm3.285 5.883c.511-.07.962-.277.98-.948a1.047 1.047 0 0 0-.633-1.1 1.037 1.037 0 0 0-.444-.08 1.025 1.025 0 0 0-1.062.979c-.044.732.41 1.096 1.159 1.149Zm-11.371-7.742a.93.93 0 0 0 .988-.957 1.003 1.003 0 0 0-.613-1.069.994.994 0 0 0-.432-.071.977.977 0 0 0-.915.597.984.984 0 0 0-.078.377c-.07.702.359 1.052 1.05 1.123ZM70.737 63.473a1.155 1.155 0 0 0-1.093-1.136c-.73-.075-1.063.417-1.111 1.075a.95.95 0 0 0 1.001 1.153c.722.031.958-.49 1.181-1.092h.022Zm7.317-3.575a.982.982 0 0 0-.996.733.99.99 0 0 0-.014.443c.052.662.529.811 1.106.772.704-.048 1.133-.413 1.032-1.132a.963.963 0 0 0-.757-.817.954.954 0 0 0-.393.001h.022Zm11.428-17.2c-.127-.64-.437-1.202-1.137-1.149a1.125 1.125 0 0 0-1.004.793c-.045.145-.06.297-.046.449.03.728.569.982 1.255.947.687-.035.862-.456.91-1.04h.022Z" fill="#29D780"/><path d="M96.217 40.132c-.695-1.377-2.186-3.452-3.76-2.434-.85.72-.587 2.263.187 3.32a16.071 16.071 0 0 1 2.97 8.015c1.465 16.41-15.308 29.254-31.293 24.292-.787-.24-1.22-.394-1.032-1.504 1.185-7.15 3.412-16.467 6.088-23.188.083-.206 1.75-1.263 2.734-1.92 2.987-2.019 14.117-8.147 19.138-10.919-.411-1.658-1.67-2.632-2.93-3.544a27.773 27.773 0 0 0-16.274-5.387 27.772 27.772 0 0 0-16.335 5.198c-14.293 10.146-14.275 30.46.04 40.155 9.21 6.224 22.742 6.014 32.079-.51 10.654-7.452 14.196-19.993 8.388-31.574Zm-8.143-5.921c-3.538 2.131-6.998 4.28-10.497 6.356a78.862 78.862 0 0 0-8.139 5.237c-.437.36-.752.755-1.504.263-4.741-3.15-9.534-6.202-14.63-8.773 7.764-9.216 23.692-11.611 34.77-3.083ZM51.336 39.83c.49-.812.753-1.036 1.71-.32a258.97 258.97 0 0 0 11.774 8.26c1.408.942.752 1.583.735 3.228-4.93-2.83-9.368-6.141-13.996-9.111-1.211-.737-.7-1.263-.231-2.057h.008Zm-1.447 2.829c.337.171.844.509 1.128.697 4.251 2.755 8.406 5.602 12.657 8.357.582.377 1.596.846 1.596.96-.17.492-.41 1.115-.874 2.229-5.078-2.83-9.683-6.396-14.63-9.431-1.22-.737-.752-1.132.114-2.812h.009Zm10.36 29.105c-3.367-1.755-9.306-7.734-9.061-8.019.376-.412 7.22 3.847 9.722 5.264a23.17 23.17 0 0 1-.67 2.755h.01ZM62 62.899c-.04.223-.096.469-.153.732a150.73 150.73 0 0 0-13.728-9.277c-1.391-.83-.993-2.553-.788-3.68 4.89 3.206 9.438 5.886 13.654 9.132l.092.075 1.448 1.017-.525 2ZM49.543 50.296c-1.845-1.092-2.125-2.242-1.019-3.996 4.759 3.224 9.5 6.488 14.275 9.677.394.245.958.623.923.715-.17.737-.376 1.526-.678 2.452-4.36-3.435-8.935-6.15-13.5-8.848Z" fill="#100E12"/><path d="m62.498 60.898-.525 2c-.04.224-.096.47-.153.733a150.723 150.723 0 0 0-13.728-9.278c-1.391-.829-.438-2.149-.788-3.68 4.89 3.207 9.438 5.887 13.654 9.133l.092.075 1.448 1.017Z" fill="#fff"/><path d="M22.436 86.248c-.091-5.47.154-17.76.075-18.423 1.128-.062.984-.878.98-1.636-.018-2.34-.03-4.68-.035-7.019 0-4.623 0-4.536 4.57-4.641 2.663-.061 4.68-.022 8.104-.294 2.786-.092 3.088-.417 3.114 2.632.083 9.927.1 19.85-.184 29.776-5.349-.132-11.275-.25-16.624-.395Zm11.927-12.852c.066.579.022 1.316.783 1.447.927.167 1.18-.47 1.312-1.272.214-.439.363-6.163.46-8.483a7.52 7.52 0 0 0-.237-2.448c-.184-.606-.665-1.246-1.474-1.123-.809.123-.953.816-.914 1.544.136 2.483-.044 9.365.07 10.335Zm2.703-15.511c-.372-.268-.35-1.035-1.08-.926a1.022 1.022 0 0 0-.943 1.09 1.027 1.027 0 0 0 1.074.959 1.057 1.057 0 0 0 .949-1.123Z" fill="#FAC704"/><path d="M76.615 13.186c-.24-1.786 4.671-1.68 5.77 1.18.629 1.956 1.84 2.632 3.459 3.483 7.518 3.864 13.47 9.396 17.179 17.13.704 1.464 1.749 3.644.087 4.386-1.662.741-1.92-1.755-2.528-2.979-3.717-7.483-9.551-12.813-16.746-16.796-.713-.395-1.098-.596-1.96.092-.594.474-1.246 1.378-2.186.627-.118-.846.49-1.316.875-1.947 1.264-1.94.41-4.711-1.876-4.676-.993.022-1.557.096-2.073-.5Z" fill="#100E12"/><path d="M54.476 86.6a80.097 80.097 0 0 1-11.003-.075c.039-1.996.074-2.983 0-4.633.603-.438.398-1.754.437-2.465.262-4.172.625-3.404 4.981-3.51 1.063-.025 2.428-.21 3.136-.846 1.597 0 2.51.654 2.484 2.391-.052 3.031-.03 6.067-.035 9.137Zm-2.16-4.26c-.03-.562 0-1.496-1.05-1.395-1.05.1-.726 1.119-.778 1.807-.053.689-.14 1.575.726 1.593 1.098 0 1.076-1.014 1.102-2.027v.022Zm0-3.733a.85.85 0 0 0-.717-1.084.871.871 0 0 0-.967.497.878.878 0 0 0-.079.38c-.035.474.101.922.626 1.04.525.119 1.028-.092 1.146-.855l-.01.022Z" fill="#FF5D29"/><path d="M17.97 86.91c-3.664.137-5.632.25-8.444.031-.022-2.978-.049-6.737-.066-9.712.713-.574-.437-4.597 1.045-4.509 1.037.066-1.093.101 4.881-.487 1.824-.044 2.742.715 2.685 2.68-.105 3.738-.06 8.26-.1 11.998Zm-1.749-7.974c.04-.671.04-1.549-.813-1.549-1.028-.03-.993.9-.971 1.65.022.75-.149 1.724.923 1.675 1.071-.048.813-1.061.87-1.776h-.009Z" fill="#8D4EF5"/><path d="M35.999 53.849c-.175.956-5.31.636-7.973.697-4.566.106-4.57 0-4.57 4.641 0 2.34.011 4.68.034 7.019 0 .754.15 1.575-.98 1.636-1.101-.246-.935-2.632-.957-4.014-.048-3.14.105-6.286.052-9.43-.021-1.286.39-1.668 1.658-1.646 3.656.066 7.317 0 10.973 0 .796-.013 1.728-.149 1.763 1.097ZM52.032 75.063c-.306 1.052-2.086.816-3.15.842-4.373.096-4.478-.505-4.74 3.667-.044.724-.079 1.869-.682 2.299-1.562.263-1.553-6.51-.875-7.374a1.112 1.112 0 0 1 .735-.439c2.532 0 5.06 0 7.588.044.507.022 1.18.412 1.124.96ZM74.573 14.774c1.268.588.652 2.07-.197 2.325-2.248 0-8.432.465-8.506-.768-.547-1.39 6.32-1.448 8.703-1.557ZM15.386 72.233c-.052 1.013-5.011.702-5.296.693-.367 0 .048 4.935-.437 4.825-1.164 1.242-1.181-4.513-.91-6.088.035-.334 1.955-.254 3.014-.272 1.229-.005 3.63.21 3.63.842ZM86.14 57.012c.945.188 1.453.623 1.409 1.535-.048 1.005-.6 1.518-1.566 1.426-.875-.08-1.207-.715-1.18-1.575.034-.96.716-1.189 1.338-1.386ZM75.762 68.496c-.1.956-.55 1.452-1.439 1.465a1.186 1.186 0 0 1-1.215-.715 1.197 1.197 0 0 1-.097-.491c-.06-.856.31-1.457 1.238-1.496.927-.04 1.308.526 1.513 1.237ZM73.523 56.332c-.091.877-.437 1.39-1.264 1.425-.826.036-1.312-.342-1.351-1.14a1.32 1.32 0 0 1 .81-1.365c.176-.072.365-.105.554-.096.779-.035 1.124.575 1.251 1.176ZM82.415 53.748c-.044.79-.438 1.272-1.242 1.316a1.137 1.137 0 0 1-1.234-.708 1.149 1.149 0 0 1-.078-.502 1.045 1.045 0 0 1 .644-1.095c.14-.056.293-.081.445-.072a1.221 1.221 0 0 1 1.305.581c.086.147.14.31.16.48ZM75.356 50.221c-.136.917-.556 1.413-1.338 1.281-.621-.105-1.44-.346-1.243-1.193.123-.53.377-1.259 1.313-1.162a1.27 1.27 0 0 1 1.268 1.074ZM68.52 70.781c-.197.921-.74 1.21-1.478 1.097-.56-.084-1.164-.14-1.168-.996 0-.939.674-1.097 1.29-1.162.761-.08 1.142.482 1.356 1.061ZM89.08 48.721a.937.937 0 0 1-.644.899.93.93 0 0 1-.388.04c-.8.04-1.054-.439-1.09-1.101-.034-.663.29-1.035.932-.992a1.284 1.284 0 0 1 1.19 1.154ZM92.36 54.63c-.76-.066-1.216-.417-1.159-1.15a1.032 1.032 0 0 1 1.063-.978 1.039 1.039 0 0 1 1.037.73c.045.146.059.3.039.45-.005.671-.455.895-.98.948ZM80.989 46.888c-.67-.07-1.098-.44-1.05-1.123a.986.986 0 0 1 .616-.904.977.977 0 0 1 .377-.07.994.994 0 0 1 1.01.702c.045.142.056.291.035.438a.937.937 0 0 1-.609.9.928.928 0 0 1-.38.056ZM70.716 63.473c-.215.601-.438 1.123-1.203 1.093a.943.943 0 0 1-.997-.713.95.95 0 0 1-.005-.441c.048-.658.38-1.15 1.111-1.075a1.148 1.148 0 0 1 1.094 1.136ZM78.032 59.898a.955.955 0 0 1 1.129.816c.1.72-.328 1.083-1.032 1.132-.578.04-1.054-.11-1.107-.772a.991.991 0 0 1 .576-1.096.982.982 0 0 1 .434-.08ZM89.456 42.698c-.044.584-.271 1.005-.927 1.04-.656.035-1.225-.22-1.255-.947a1.134 1.134 0 0 1 1.05-1.242c.708-.053 1.01.509 1.132 1.15Z" fill="#100E12"/><path d="M53.296 37.307c7.763-9.212 24.054-11.44 35.141-2.921-3.543 2.145-6.866 4.386-10.378 6.444-2.786 1.632-6.049 3.009-8.616 4.979-.46.35-.875.754-.901.723-4.737-3.15-10.142-6.658-15.246-9.225ZM65.73 51.13c-4.93-2.83-9.355-6.142-13.996-9.103-1.18-.75-.686-1.276-.218-2.057.468-.78.752-1.048 1.723-.325 4.434 2.632 9.621 5.615 13.632 8.264.035.088-.42 1.373-1.141 3.22ZM61.566 65.412c-.17.224-.35 1.518-.525 1.755-3.936-2.343-7.736-4.795-11.681-7.133-1.129-.671-1.343-1.93-1.312-2.934.07-.088 9.355 4.733 13.518 8.312ZM37.066 57.885a1.064 1.064 0 0 1-.95 1.123 1.021 1.021 0 0 1-1.073-.96 1.029 1.029 0 0 1 .942-1.089.903.903 0 0 1 1.005.527c.055.125.08.262.076.399ZM52.316 82.318c-.026 1.013 0 2.027-1.102 2.005-.874 0-.778-.94-.726-1.593.053-.653-.25-1.702.779-1.807 1.027-.105 1.019.851 1.05 1.395ZM52.325 78.585c-.118.763-.547.978-1.138.838-.59-.14-.66-.566-.625-1.04a.88.88 0 0 1 .658-.867.873.873 0 0 1 .387-.01.842.842 0 0 1 .742.713.848.848 0 0 1-.024.366ZM16.235 78.936c-.061.715.135 1.71-.875 1.754-1.01.044-.896-.965-.923-1.675-.026-.71-.057-1.68.971-1.65.853.022.853.9.827 1.57Z" fill="#F9F9F9"/><path d="M44.396 75.918a.183.183 0 0 0-.18.18v2.632l3.617-2.816-3.437.004Z" fill="#FF5D29"/><path d="M64.418 91.96c-.976.074-1.44-.803-1.487-1.873-.048-1.163.245-1.067-.875-1.027-17.205.566-34.393-.605-51.607-.623-1.75 0-3.5.075-5.21.035l-3.196.057c.074 1.097.074 3.453-.827 3.47-1.185.04-1.26-1.11-1.203-2.035.092-1.715.28-3.435.412-5.168.056-.662.284-1.263.997-1.263a.872.872 0 0 1 .826.718.88.88 0 0 1-.017.392c-.035.982-.206 1.474.49 1.491 1.788-.17 56.418.263 58.71.417 1.43.11 1.613.47 1.688-1.68 0-.439.555-1.342 1.141-1.316.818 0 .849.732.905 1.127.337 2.233.197 7.207-.747 7.278Z" fill="#100E12"/><path d="M77.18 16.357c.5 0 .905-.399.905-.89a.898.898 0 0 0-.905-.89c-.5 0-.906.398-.906.89 0 .491.406.89.906.89Z" fill="#fff"/></svg>